<svg xmlns="http://www.w3.org/2000/svg" viewBox="0 0 52.5626 34.5796"><defs><style>.a{fill:#028cfc;}</style></defs><path d="M52.3115 13.8906c-1.03-6.3667-3.9229-8.3364-3.9229-8.3364L42.5048 6.605S34.9541.938 31.3349 0c0 0-2.4277.5186-4.9888 1.2451L21.2168 0c-3.6187.938-11.1685 6.605-11.1685 6.605L4.163 5.5542S1.3823 7.4024.3164 13.4707c-1.045 5.9478.833 8.58.833 8.58l5.3774.9717a2.83 2.83 0 0 0 2.9693 2.2129h.01a6.0229 6.0229 0 0 0 .479.3808c-.001.003-.1992 3.6573 3.9043 3.0948 0 .1435.02 4.9414 4.9541 3.0918.0923.0488.1826.0957.2754.1435.0078.0361.7065 3.3447 4.2651 1.8213a21.2107 21.2107 0 0 0 3.2618.8115s.0219.001.0615.001a3.5032 3.5032 0 0 0 2.685-1.0732 6.4182 6.4182 0 0 0 2.0967.3564 4.2987 4.2987 0 0 0 4.002-2.3682 2.4982 2.4982 0 0 0 .58.0577c.9961 0 3.0733-.4327 4.6465-3.6758a5.7538 5.7538 0 0 0 4.4864-4.7315l6.131-1.0954s1.8951-2.4821.9766-8.1594zm-8.2949 8.9908a4.6954 4.6954 0 0 1-3.001 3.6621l-.02-.0127c-.0733-.0362-7.2149-3.7149-8.9922-5.3946a.6079.6079 0 0 0-.835.8838c1.5576 1.4727 6.585 4.1836 8.5147 5.1992l-.0616.126c-1.2607 2.6026-2.7656 2.99-3.5508 2.99-.0322 0-.0615-.001-.09-.003a.6229.6229 0 0 0-.1953-.1738 43.4307 43.4307 0 0 1-7.041-4.8447.6077.6077 0 1 0-.85.8691 39.342 39.342 0 0 0 6.581 4.6279l-.0576.1084a3.0721 3.0721 0 0 1-2.93 1.7256 5.3882 5.3882 0 0 1-1.57-.2441.6051.6051 0 0 0-.1885-.2041 30.2086 30.2086 0 0 1-3.207-2.52.6084.6084 0 0 0-.8291.8906 29.147 29.147 0 0 0 2.73 2.2012l-.0264.0371a2.3355 2.3355 0 0 1-1.6514.5566 19.6773 19.6773 0 0 1-2.69-.6582 3.9127 3.9127 0 0 0 .4443-1.9287 1.8124 1.8124 0 0 0-2.915-1.4072 16.5363 16.5363 0 0 0-1.6475 1.626q-.22-.1128-.436-.2256c.7881-1.2315 2.0845-3.2783 2.7866-4.5166 1.0557-1.8594-1.6582-4.1709-3.3672-2.6631-1.17 1.0312-3.101 3.0459-4.2031 4.2129-.0449-.0313-.0884-.0635-.1328-.0947.7974-1.12 2.0684-2.9112 2.728-3.8672a2.0484 2.0484 0 0 0-3.0659-2.6641 16.6765 16.6765 0 0 0-3.56 3.4336c-.0717-.0625-.1416-.124-.2114-.1856a4.9725 4.9725 0 0 0 1.811-3.8007c-.1669-2.2119-3.4834-.5606-4.9794 1.2793l-5.31-.9485c-.4043-.8672-1.1963-3.2094-.4824-7.2724C2.2456 9.5181 3.83 7.5425 4.52 6.8535l5.3149.9488.521.0932.4234-.3179c1.98-1.4858 7.5879-5.4145 10.4638-6.3193l2.8311.6865a13.16 13.16 0 0 0-3.0581 1.3584c-2.0933 1.49-4.9917 6.3028-6.1646 8.2227-.5356.8769 4.2891 2.68 7.9077 0s5.919-2.68 5.919-2.68 1.8838 5.2637 15.4248 13.6275c-.0269.1306-.0542.2666-.0864.408z" class="a"/></svg>